<svg version="1.1" id="Layer_1" xmlns="http://www.w3.org/2000/svg" xmlns:xlink="http://www.w3.org/1999/xlink" x="0px" y="0px"
	 width="100%" viewBox="0 0 800 608" enable-background="new 0 0 800 608" xml:space="preserve">
<path fill="#000000" opacity="1.000000" stroke="none" 
	d="
M470.832886,240.983734 
	C473.400116,238.987106 475.576447,237.725357 478.844788,238.399719 
	C480.714874,238.785568 482.905823,237.408203 485.431061,235.200180 
	C473.881805,233.232895 462.887817,230.446869 452.790985,236.151199 
	C441.351685,242.613983 430.678314,250.455017 421.673981,260.229218 
	C419.129700,262.991058 416.248352,265.627655 415.307892,269.969269 
	C418.968353,270.511169 421.333313,268.322418 423.224426,266.449097 
	C433.365356,256.403900 446.246490,252.625961 459.675354,250.426620 
	C470.926788,248.583908 482.525818,250.462662 493.889893,246.930237 
	C491.997101,260.798401 463.457123,274.154297 444.500977,270.333466 
	C452.337982,267.536743 460.460785,265.234711 467.122314,257.635803 
	C459.662231,256.955658 453.454468,258.107269 447.312592,259.695343 
	C445.234955,260.232574 443.285675,261.267883 441.279724,262.080414 
	C433.090668,265.397583 428.457458,270.480225 427.750275,280.255005 
	C426.589905,296.292755 422.301392,311.757111 412.696411,325.185394 
	C411.472473,326.896545 411.421417,328.488922 412.406189,330.283203 
	C414.495789,334.090271 416.699127,337.800262 419.807068,340.904602 
	C421.769287,342.864532 423.626221,344.929871 426.292358,347.755463 
	C421.060791,347.700470 418.573669,344.917328 415.809509,342.833740 
	C412.976044,340.697906 411.146790,337.662506 409.180756,334.762299 
	C405.464233,329.279816 405.054779,324.501648 409.329742,318.484772 
	C416.592072,308.263245 419.504456,296.169495 420.735352,283.743469 
	C420.858093,282.504272 421.296753,281.073059 419.795563,279.944305 
	C417.229187,280.670441 417.019196,282.776917 416.952576,284.975250 
	C416.476227,300.694031 410.428070,314.428101 401.602142,327.060272 
	C399.427277,330.173157 398.871002,332.677765 400.731262,336.145233 
	C407.190796,348.185730 412.415009,360.813965 417.854401,373.334015 
	C419.184174,376.394714 420.128510,379.602173 420.215271,382.979858 
	C420.253906,384.484283 420.238831,386.161194 418.752960,386.994934 
	C417.064514,387.942322 415.480286,387.033112 414.165497,385.984070 
	C411.372986,383.755951 409.322723,380.999939 408.595581,377.507446 
	C409.621979,375.524475 411.099365,377.712891 412.472443,376.690399 
	C413.239655,373.626038 411.670990,370.728394 410.520538,367.932739 
	C406.084900,357.153839 401.530975,346.418823 396.742493,335.793030 
	C395.425659,332.870941 395.521240,330.724487 397.122589,327.942566 
	C401.783875,319.844879 405.906891,311.472504 407.372528,302.073853 
	C407.759155,299.594452 407.983185,297.134460 407.513428,294.573944 
	C405.519104,294.297180 404.945496,295.938965 404.231873,297.065002 
	C401.559479,301.281647 399.355072,305.829926 396.391815,309.820648 
	C386.723633,322.841125 390.243958,336.813293 392.623749,350.937683 
	C396.655029,374.863678 395.414825,398.377411 385.551392,420.959564 
	C384.497375,423.372772 384.511719,423.379028 382.143005,425.599579 
	C380.760406,425.468048 380.269012,424.388306 379.768127,423.326385 
	C372.141602,407.157867 369.377319,390.144653 370.442017,372.342133 
	C371.308716,357.850647 373.523804,343.583862 376.411652,329.389038 
	C376.667999,328.128937 376.780121,326.606232 376.315033,325.468872 
	C371.891541,314.650909 366.728790,304.213806 359.726501,294.785797 
	C359.371002,294.307190 358.736267,294.035919 358.006500,293.504120 
	C356.531891,298.051575 357.970215,302.056885 358.993958,305.988495 
	C360.890533,313.272675 363.694977,320.272247 367.760040,326.603790 
	C370.137329,330.306488 369.970306,333.417999 368.220490,337.278503 
	C363.071442,348.638672 357.700928,359.923279 353.917145,371.853973 
	C353.421692,373.416199 352.922516,374.977264 352.483215,376.356232 
	C353.816040,378.320923 355.524780,375.547882 356.902313,377.467957 
	C356.526917,381.542755 353.991364,384.473846 350.434692,386.506531 
	C347.754730,388.038177 345.925110,387.121033 345.737274,383.843048 
	C345.452271,378.868927 346.997742,374.290924 349.038391,369.886383 
	C354.358459,358.403442 359.083954,346.636169 365.226196,335.546112 
	C366.670532,332.938293 366.863098,330.779816 364.951263,328.233093 
	C355.110931,315.124817 349.275452,300.507538 348.646729,283.971039 
	C348.551971,281.478455 348.366119,281.485535 344.745392,279.378845 
	C343.567596,283.302734 345.055603,286.996399 345.704346,290.626007 
	C347.745514,302.046204 351.661743,312.819824 358.436096,322.347931 
	C360.247314,324.895416 360.142487,327.065948 358.934631,329.730774 
	C355.191711,337.989014 350.089478,344.794037 341.196838,348.024353 
	C339.964478,346.215027 341.214417,345.539703 341.939392,344.753204 
	C343.854706,342.675415 345.917114,340.725952 347.743073,338.574463 
	C354.869507,330.177521 354.906586,329.035187 349.411224,319.473938 
	C343.518402,309.221191 340.153717,298.134888 338.696075,286.430756 
	C338.205933,282.495239 337.426147,278.588379 337.101562,274.641876 
	C336.798981,270.963074 334.961273,268.328033 332.087738,266.431030 
	C322.215515,259.913849 311.408569,256.712677 298.556915,257.517670 
	C304.568634,265.129242 312.688110,267.571899 320.746216,270.114899 
	C305.428497,273.456604 276.790649,264.561493 271.711487,248.038544 
	C271.841400,247.940277 271.988098,247.739929 272.098877,247.758133 
	C289.551605,250.626801 307.742249,248.231781 324.627716,255.253082 
	C329.597565,257.319641 334.291077,259.693359 338.356903,263.266296 
	C341.842285,266.329193 345.434174,269.269958 350.857086,271.670380 
	C349.675903,266.204010 346.589874,263.006439 343.660004,259.960358 
	C334.830078,250.780075 324.453888,243.503098 313.820282,236.593765 
	C306.053040,231.546921 297.418793,233.316833 289.007568,233.669052 
	C286.421814,233.777328 283.862122,234.508743 281.141754,235.727951 
	C293.186829,239.459854 304.400146,245.197922 316.845764,247.710693 
	C313.135071,249.834091 309.411835,248.459183 305.863403,248.204788 
	C295.867615,247.488098 286.152466,245.387283 276.898804,241.259048 
	C267.031799,236.857224 264.173706,228.532166 263.221497,218.773010 
	C263.873077,218.735153 264.366364,218.577423 264.476471,218.718567 
	C270.689026,226.683563 278.934357,227.939575 288.262238,226.262711 
	C290.967285,225.776413 293.833740,226.188049 297.092773,226.188049 
	C293.030334,219.926498 288.415497,214.014648 287.932526,206.183899 
	C290.431763,205.858276 291.233948,207.519669 291.681244,208.978973 
	C294.287170,217.480774 300.339386,222.828445 308.127960,226.034470 
	C318.264282,230.206894 327.204529,236.193787 335.957306,242.592133 
	C336.737213,243.162247 337.621429,243.589691 338.560913,244.144684 
	C341.332184,241.476639 341.277802,238.796265 339.187164,236.054718 
	C334.635132,230.085434 329.763641,224.405609 324.106873,219.424850 
	C321.036560,216.721420 317.157715,216.674347 312.789307,215.270905 
	C315.894043,223.383713 323.205627,227.058884 327.784363,233.506485 
	C314.463135,230.030121 295.712921,208.144943 299.683167,189.952698 
	C302.035400,190.983948 302.397186,193.321014 303.093475,195.119110 
	C306.743042,204.543701 313.251892,210.549744 323.215271,212.663010 
	C325.921661,213.237061 328.071198,214.835693 330.088989,216.571381 
	C339.759460,224.889877 346.179657,236.003998 354.920593,244.845352 
	C354.597595,245.603424 354.549438,246.069489 354.337738,246.162247 
	C346.837891,249.448181 346.771423,249.620255 351.955841,256.300842 
	C360.267426,267.011139 367.495453,278.349396 372.240143,291.128235 
	C372.839050,292.741302 374.125824,294.301086 372.858032,296.909607 
	C370.528900,294.191193 368.428345,291.739502 366.327759,289.287842 
	C366.132629,289.419403 365.937531,289.550995 365.742432,289.682556 
	C371.305267,298.219421 376.868134,306.756256 382.979156,316.134338 
	C388.755127,307.120667 394.054321,298.851013 399.759644,289.947601 
	C396.047424,291.297974 395.882172,295.614227 391.947998,296.365143 
	C393.454987,287.762390 397.735565,280.811157 401.625916,273.768341 
	C405.412628,266.913055 410.174225,260.660706 414.961548,254.465607 
	C418.726929,249.592941 418.547699,248.921326 412.499573,246.892914 
	C411.907013,246.694183 411.387329,246.278030 410.189178,245.595657 
	C420.022766,235.083359 427.019287,222.543152 438.828979,214.288742 
	C440.015564,213.459366 441.499451,212.919556 442.925049,212.590118 
	C451.876862,210.521515 457.999512,205.221146 461.654846,196.825714 
	C462.691498,194.444778 463.437500,191.810837 465.536194,189.903412 
	C469.915375,205.519379 454.496094,227.890106 437.412292,233.472809 
	C442.752136,227.117508 449.720215,223.592178 452.465118,215.953674 
	C448.299164,216.106873 444.665100,216.625870 441.713684,219.215042 
	C435.805725,224.397949 430.660004,230.290390 425.952057,236.577225 
	C424.526489,238.480865 423.732178,240.390579 425.526917,242.427719 
	C427.511078,244.679840 429.251831,242.867996 430.725006,241.754028 
	C439.404694,235.190704 448.740601,229.845413 458.711121,225.453018 
	C465.793762,222.332809 471.004578,217.015060 474.107788,209.755844 
	C474.714081,208.337616 474.998901,206.526337 477.272247,205.605026 
	C477.553070,213.833084 472.823639,219.631577 468.098145,226.489227 
	C480.146851,225.189026 492.755920,231.399857 501.103668,217.778214 
	C503.078094,225.236862 499.449738,234.146866 493.505432,238.285736 
	C483.559570,245.210770 472.010162,247.011444 460.395874,248.182068 
	C456.419647,248.582809 452.310944,249.887695 448.018738,247.766098 
	C455.510773,245.561737 463.002777,243.357391 470.832886,240.983734 
M384.259491,390.506470 
	C388.411835,373.820587 387.055878,357.184906 383.996277,340.561188 
	C380.187378,358.612122 376.055969,376.646515 382.341766,396.177246 
	C383.172729,393.705170 383.593292,392.453918 384.259491,390.506470 
z"/>
<path fill="#000000" opacity="1.000000" stroke="none" 
	d="
M307.589844,527.100342 
	C312.075043,532.263977 316.309998,537.139771 320.544952,542.015564 
	C321.682434,536.137024 323.213776,530.560852 319.853851,524.899292 
	C327.315735,524.899292 334.415100,524.899292 341.595154,524.899292 
	C337.273193,532.687317 339.854614,540.968079 339.528900,548.962036 
	C339.418365,551.675476 343.525909,552.803223 346.290558,550.899841 
	C350.053314,548.309387 352.446411,544.387817 355.217590,540.867798 
	C356.444519,539.309387 355.587341,537.673828 354.510010,536.303223 
	C351.575775,532.570190 349.580078,528.017883 344.019775,525.374207 
	C348.776001,524.260010 352.427063,524.580627 356.296112,524.995605 
	C355.016754,529.257019 357.706573,531.494263 360.220917,534.206665 
	C363.174896,531.559326 365.803925,529.124512 365.868500,525.140259 
	C368.263428,524.472412 370.368530,524.478271 373.424652,525.201477 
	C369.373413,527.884094 367.076233,531.396790 364.306824,534.497864 
	C362.596161,536.413391 362.367554,538.210754 363.961761,540.284058 
	C367.160095,544.443665 369.471741,549.303040 374.376740,552.807434 
	C370.412079,553.844421 367.030914,553.301941 363.343201,553.163208 
	C364.277374,548.276062 361.210083,545.589417 358.268127,542.238892 
	C355.552429,545.817139 351.506897,547.901123 352.362244,553.144653 
	C345.389618,553.144653 338.467346,553.144653 331.495178,553.144653 
	C335.570862,545.132507 333.376129,536.781189 333.264862,528.623779 
	C333.234802,526.418091 330.847626,526.197510 328.935272,526.262512 
	C326.558075,526.343201 325.192505,527.560181 325.164795,529.986755 
	C325.100159,535.648376 325.127686,541.311035 325.045380,546.972290 
	C325.017395,548.895752 325.428009,550.957214 323.655457,553.115662 
	C317.076141,547.062317 311.844055,540.019592 305.272430,533.921753 
	C305.892792,540.252930 302.821655,546.906677 307.878510,552.914246 
	C305.101471,553.992310 302.217377,553.273560 299.195740,553.129944 
	C303.561035,546.712830 302.735229,529.651672 297.644501,525.196228 
	C301.332153,524.482239 304.608398,523.670959 307.589844,527.100342 
z"/>
<path fill="#000000" opacity="1.000000" stroke="none" 
	d="
M292.553467,60.734383 
	C298.012085,59.279781 303.200378,58.115025 308.294159,56.626808 
	C312.346008,55.442993 313.816315,57.030308 313.829895,61.374599 
	C310.792389,60.648693 308.109039,58.348812 304.928131,60.131588 
	C303.312286,61.037224 300.389557,60.563366 300.669373,63.335312 
	C300.906586,65.685234 300.561218,68.809036 303.049133,70.077324 
	C305.188141,71.167770 307.510590,69.754265 309.563263,68.652908 
	C310.743866,68.019485 310.479553,66.091080 312.442535,65.731850 
	C313.739563,68.283669 314.524200,70.951477 314.429321,73.784088 
	C313.053192,74.299629 312.627502,73.379051 311.954773,72.994347 
	C309.115173,71.370422 305.866364,71.839493 304.162811,73.938225 
	C302.148621,76.419655 304.212952,79.678711 305.143982,82.390167 
	C306.220520,85.525269 308.807953,83.439789 310.730316,83.325584 
	C314.968475,83.073769 317.008545,79.706619 319.644623,75.800529 
	C320.167908,79.973854 321.078217,83.315742 316.824158,84.393791 
	C305.903931,87.161179 294.811066,89.263023 284.429352,93.523224 
	C282.054321,89.239227 279.604401,87.696548 272.203522,85.632690 
	C272.549927,89.604538 273.065521,93.216942 278.539093,95.310135 
	C273.919830,96.927277 270.625153,98.080711 266.887878,99.389084 
	C269.138123,93.048370 263.175659,75.416061 257.865753,72.186180 
	C261.642303,70.872368 264.877319,68.889633 269.672119,68.452766 
	C265.689087,72.735428 268.270813,76.085228 269.742310,79.722618 
	C274.509186,74.815849 276.743683,70.483963 273.707428,66.869926 
	C276.596710,65.243843 279.530304,64.169945 283.631989,63.829395 
	C279.605225,69.020454 276.859100,74.021248 274.714539,79.824890 
	C279.909119,82.937302 285.173004,85.785767 290.833221,87.503334 
	C297.403900,89.497200 300.174866,86.540276 298.643097,79.885010 
	C297.859772,76.481567 297.030060,73.088791 296.249603,69.684708 
	C295.513519,66.474258 294.379120,63.453354 292.553467,60.734383 
z"/>
<path fill="#000000" opacity="1.000000" stroke="none" 
	d="
M369.726257,272.314026 
	C366.576874,268.743774 365.871521,265.742493 369.631744,262.289948 
	C372.440582,259.710938 373.069885,255.978012 373.086578,252.165253 
	C373.094910,250.265671 372.372650,248.210373 374.016724,245.948715 
	C377.035583,249.983963 377.943420,254.712021 376.406250,258.605530 
	C373.036835,267.140137 377.238831,273.162628 381.625885,279.659698 
	C384.107758,276.017609 386.480652,272.441559 388.956177,268.937988 
	C390.424500,266.859833 389.038727,265.551392 387.895020,264.124481 
	C384.566559,259.971832 380.805237,256.134491 378.305603,251.374191 
	C377.483551,249.808716 376.323120,248.279938 376.787384,245.166565 
	C383.479980,252.839508 389.897980,260.017761 402.086029,260.065552 
	C392.338989,272.692444 386.276367,285.547089 382.791168,299.805176 
	C378.218231,290.603394 375.084778,281.129852 369.726257,272.314026 
z"/>
<path fill="#000000" opacity="1.000000" stroke="none" 
	d="
M409.855469,252.368408 
	C400.304474,253.023026 393.559418,248.143356 388.142731,240.944305 
	C386.160126,238.309311 384.528687,235.402328 381.801636,233.701172 
	C379.802887,234.132019 381.426392,236.519974 379.222290,236.837311 
	C376.276825,235.112427 374.602203,230.342590 369.189362,231.590897 
	C371.314758,240.288284 374.931732,249.228195 368.570801,257.662292 
	C367.525787,259.047882 365.946320,259.678284 363.421753,258.431000 
	C368.378571,253.781311 367.820892,248.143829 366.461334,242.391525 
	C364.646912,234.714630 362.182953,232.651901 354.717865,232.569717 
	C353.372711,225.676224 359.115906,220.294113 366.142548,222.396469 
	C370.911530,223.823349 375.063660,226.563477 380.643799,225.076691 
	C383.567841,224.297592 386.735870,226.985809 388.347809,229.806778 
	C393.649231,239.084442 400.396698,246.863632 409.855469,252.368408 
z"/>
<path fill="#000000" opacity="1.000000" stroke="none" 
	d="
M90.392128,268.300476 
	C89.126373,271.474976 88.365837,274.589996 85.836456,277.517090 
	C83.885178,271.899841 78.716377,270.941620 74.393173,269.033508 
	C70.192215,267.179382 66.367439,263.307159 60.670750,265.650543 
	C60.803440,261.670410 62.969585,258.857635 65.096436,255.021179 
	C66.643806,259.997711 70.291901,261.218750 74.590088,262.427460 
	C75.958450,258.642426 80.473679,255.511932 77.872498,251.287354 
	C76.160072,248.506180 72.291069,247.015717 68.216209,249.777802 
	C68.011856,245.284882 70.692833,242.653778 71.969864,240.003754 
	C79.741432,246.014633 87.919083,250.439331 97.923203,251.803909 
	C97.393074,254.711319 96.015335,257.774628 93.502533,261.013672 
	C91.429733,256.480469 87.590836,253.229401 83.635880,253.887787 
	C79.640816,254.552856 79.603355,260.143219 77.557724,263.737640 
	C81.469513,266.769287 85.531830,268.517517 90.392128,268.300476 
z"/>
<path fill="#000000" opacity="1.000000" stroke="none" 
	d="
M473.035828,452.315918 
	C472.108368,451.410309 470.767029,451.657562 470.369720,450.126740 
	C474.887268,449.362183 478.867737,448.947906 482.286285,453.234985 
	C487.442535,459.701141 493.095642,465.771118 499.560059,473.181702 
	C499.243866,464.593842 501.181763,457.343292 498.044556,450.055573 
	C501.862183,448.953583 503.430450,450.059845 503.110565,454.911407 
	C502.532928,463.671326 502.656677,472.477356 502.482361,481.264038 
	C502.466522,482.060791 502.688141,482.940765 501.173981,483.879028 
	C494.133911,475.898895 486.996582,467.808533 479.859222,459.718140 
	C479.376404,459.889343 478.893585,460.060577 478.410767,460.231781 
	C479.388458,468.105499 475.655640,476.447723 481.644775,484.075195 
	C478.685638,484.075195 475.595001,484.075195 471.508850,484.075195 
	C475.701843,481.217896 475.803070,477.604370 475.684448,473.814636 
	C475.533661,468.996033 475.637421,464.169525 475.631012,459.346405 
	C475.627625,456.809814 475.457977,454.329102 473.035828,452.315918 
z"/>
<path fill="#000000" opacity="1.000000" stroke="none" 
	d="
M361.501617,468.467590 
	C362.660431,469.835968 363.560211,470.981781 365.276215,473.166992 
	C365.731781,464.884613 366.150696,457.764099 364.987732,450.522156 
	C366.960846,449.258881 369.067078,449.730103 372.009491,450.159882 
	C368.588409,452.092468 368.326141,454.868500 368.343506,457.821655 
	C368.393341,466.294189 368.361084,474.767181 368.361084,484.468475 
	C362.900635,480.631226 360.228302,475.614441 356.475403,471.686646 
	C352.620117,467.651703 348.943878,463.445740 344.679047,459.495605 
	C345.482086,467.569275 341.779175,476.060150 347.192841,484.058044 
	C344.653076,484.758087 341.525208,484.376434 337.128143,483.865967 
	C341.502289,481.318451 341.320282,477.967712 341.469208,474.390350 
	C341.684082,469.230469 340.715424,464.115448 341.426239,458.936066 
	C341.949982,455.119598 340.187256,452.153046 336.241791,450.480804 
	C340.733185,449.620056 344.725037,448.816376 348.119568,453.207275 
	C352.181488,458.461365 356.841553,463.253052 361.501617,468.467590 
z"/>
<path fill="#000000" opacity="1.000000" stroke="none" 
	d="
M446.030731,284.176697 
	C440.568542,281.173279 436.452942,277.348480 432.710938,271.177338 
	C437.243744,272.332794 439.078888,275.065155 441.614014,276.636688 
	C446.730988,279.808716 451.739380,282.615906 457.769867,278.937256 
	C458.045013,278.769409 458.501007,278.524597 458.684235,278.633362 
	C465.207672,282.504578 469.401581,276.983673 474.420685,274.789215 
	C474.642792,274.692108 475.019043,274.947662 475.321838,275.044495 
	C474.303650,288.954529 454.612640,300.241425 441.587708,293.969910 
	C445.534363,291.352020 450.572540,291.306549 454.166992,287.765625 
	C451.742706,285.720612 448.769958,285.630554 446.030731,284.176697 
z"/>
<path fill="#000000" opacity="1.000000" stroke="none" 
	d="
M216.957428,531.728394 
	C217.061050,533.799377 216.045883,536.339966 218.794113,536.451721 
	C221.978943,536.581177 225.980331,538.171631 228.190414,535.324829 
	C229.891586,533.133423 229.579727,529.622375 227.753571,526.904419 
	C227.422195,526.411194 226.793869,526.117493 225.805862,525.341553 
	C229.807480,524.191406 233.285217,524.647827 236.879288,524.947144 
	C233.147858,531.702209 233.336578,548.112000 237.281677,552.951721 
	C233.908035,554.094604 230.656128,553.026978 226.238510,553.505249 
	C229.268082,550.149170 228.881332,546.950745 228.971909,543.777710 
	C229.071259,540.296509 227.580948,538.825317 224.194000,539.274902 
	C221.868851,539.583557 218.435959,537.944214 217.548416,540.957764 
	C216.573395,544.268372 215.830597,548.135803 218.552734,551.332153 
	C218.951233,551.800110 219.724365,551.975830 219.447754,553.086487 
	C216.133728,553.719910 212.720535,553.388611 209.617294,553.196472 
	C211.769257,543.663208 211.813263,534.441101 209.477676,524.953735 
	C212.421234,524.165100 215.860031,524.828308 220.177124,524.648438 
	C218.213470,527.012146 216.522049,528.786682 216.957428,531.728394 
z"/>
<path fill="#000000" opacity="1.000000" stroke="none" 
	d="
M395.043945,65.833771 
	C393.946075,69.945564 393.713684,73.629036 397.378937,76.858917 
	C393.442688,77.549873 390.242554,77.345627 387.454254,76.587730 
	C389.073639,67.128387 390.846619,58.016827 388.402954,47.973713 
	C393.712219,48.050877 399.313934,47.838470 404.544220,49.703373 
	C410.524261,51.835617 411.200470,58.321060 406.207001,62.352016 
	C405.449524,62.963478 404.589478,63.447884 403.557922,64.137413 
	C405.940186,69.257744 409.326141,73.411354 413.743317,76.898628 
	C409.408691,78.581993 407.013885,78.096672 404.564758,74.994423 
	C402.502197,72.381805 400.641052,69.609573 398.562531,67.010521 
	C397.769806,66.019272 397.193909,63.971222 395.043945,65.833771 
M402.895203,55.596825 
	C402.513458,52.703697 401.022369,50.967533 397.948090,51.207863 
	C395.836273,51.372944 395.347260,52.974270 395.296753,54.787300 
	C395.264313,55.950878 395.140900,57.121204 395.222473,58.276909 
	C395.451996,61.528152 397.459503,62.564415 400.247253,60.884907 
	C401.924011,59.874733 402.873108,58.378857 402.895203,55.596825 
z"/>
<path fill="#000000" opacity="1.000000" stroke="none" 
	d="
M440.526306,483.993530 
	C442.306061,481.340942 443.096039,478.582275 442.946564,475.268188 
	C442.684265,469.453522 442.884918,463.618347 442.876678,457.791748 
	C442.872711,454.993347 443.189911,452.070648 440.243988,449.776978 
	C447.669647,449.776978 455.105042,449.549469 462.517212,449.865753 
	C466.695435,450.044067 465.051239,453.543640 465.086853,456.406921 
	C461.959259,451.368378 457.214905,452.353729 452.738800,452.338501 
	C450.555481,452.331085 449.045990,453.129028 449.273743,455.489807 
	C449.561249,458.470276 447.696472,462.046021 450.829041,464.284088 
	C453.318420,466.062622 458.904266,464.226044 462.051697,460.893097 
	C463.717499,464.480652 462.565948,467.838562 462.390594,472.565338 
	C460.249237,469.311462 458.895691,466.824493 455.725037,467.321777 
	C453.577271,467.658661 450.287354,466.140717 449.642242,469.107544 
	C448.820038,472.888672 448.069336,477.172028 450.290283,480.719391 
	C451.763031,483.071838 461.462067,481.662231 464.283691,479.187042 
	C465.330658,478.268677 465.660706,476.412048 467.564392,476.527618 
	C467.009003,483.659576 466.350922,484.348877 459.799164,484.331024 
	C453.476013,484.313782 447.153076,484.226257 440.526306,483.993530 
z"/>
<path fill="#000000" opacity="1.000000" stroke="none" 
	d="
M522.383789,91.831848 
	C518.397156,98.838623 512.885010,101.577301 505.607849,100.018059 
	C500.093567,98.836540 494.954987,96.499268 490.164001,94.234512 
	C496.000580,86.267471 499.542725,77.759056 500.575043,67.613152 
	C506.433990,69.721733 513.406738,71.259911 518.916138,75.980850 
	C523.769470,80.139618 524.344299,85.585320 522.383789,91.831848 
M504.310028,96.941292 
	C511.253967,97.488503 515.636536,94.334923 517.350098,87.557968 
	C518.682617,82.287994 516.020081,76.813042 511.040985,74.311249 
	C508.087433,72.827225 506.092590,73.184418 504.877502,76.577484 
	C503.316162,80.937569 501.696686,85.297279 499.748047,89.492638 
	C497.714508,93.870766 499.166992,96.013283 504.310028,96.941292 
z"/>
<path fill="#000000" opacity="1.000000" stroke="none" 
	d="
M408.636475,483.972412 
	C412.273651,479.954376 411.273743,474.791901 411.335754,470.245850 
	C411.398712,465.630493 411.086304,460.943268 411.015930,456.286713 
	C410.979736,453.891907 410.525604,451.747986 408.499176,449.747131 
	C415.797455,449.747131 423.096649,449.679565 430.393738,449.773804 
	C434.427216,449.825867 433.287659,452.810455 433.567810,456.254608 
	C430.137115,452.424347 426.474396,452.360382 422.639465,452.242371 
	C418.434998,452.113037 416.743317,453.742950 417.309540,457.791046 
	C417.631104,460.090088 416.003601,463.540833 419.256042,464.289459 
	C422.603302,465.059937 426.675415,466.030731 429.027954,461.739929 
	C429.212067,461.404083 429.788879,461.283508 430.474976,460.899597 
	C431.583069,463.851501 431.256958,466.488159 430.413116,469.093048 
	C429.885162,469.192749 429.459320,469.412140 429.285065,469.285461 
	C425.890991,466.818329 421.319061,465.834900 418.587341,468.141907 
	C415.545593,470.710663 417.431274,475.647400 417.564056,479.553253 
	C417.616211,481.087372 419.092133,481.570312 420.541229,481.637756 
	C425.757080,481.880493 431.024353,482.307343 434.327484,476.910492 
	C434.515594,476.603149 435.159973,476.575043 435.638977,476.399841 
	C435.286346,483.432404 434.434113,484.329987 427.915314,484.317902 
	C421.586090,484.306152 415.256989,484.209564 408.636475,483.972412 
z"/>
<path fill="#000000" opacity="1.000000" stroke="none" 
	d="
M315.998047,295.278442 
	C302.838928,294.234528 292.447418,285.641022 290.701141,274.346252 
	C304.956207,282.130188 318.631744,283.348663 331.261292,270.383362 
	C330.868561,277.115784 326.394867,280.617737 310.928955,287.140076 
	C314.558685,290.731506 319.843109,290.626282 324.111969,293.386871 
	C321.609894,295.369385 319.027130,295.342773 315.998047,295.278442 
z"/>
<path fill="#000000" opacity="1.000000" stroke="none" 
	d="
M645.932922,177.708054 
	C645.473572,181.904922 643.804016,185.527756 644.514465,189.452133 
	C649.782166,188.156601 655.890686,181.910934 656.368713,177.079025 
	C658.890930,179.163834 661.214661,181.085480 662.881653,185.038116 
	C658.406799,182.700226 656.057190,185.134140 653.585999,187.308456 
	C649.961853,190.497330 646.333862,193.683380 642.645203,196.796692 
	C641.430664,197.821747 640.304382,199.192703 637.886536,199.022980 
	C637.604675,190.361496 640.710083,182.037796 640.089905,172.558304 
	C634.283447,175.873138 630.338501,180.208542 626.456360,184.608231 
	C624.279175,183.811447 623.174683,182.305328 622.591980,180.279404 
	C630.454773,178.585083 641.562256,167.490494 642.066589,160.565033 
	C645.859863,162.706802 647.783264,165.541504 647.100281,169.869125 
	C646.711121,172.334900 646.359619,174.806610 645.932922,177.708054 
z"/>
<path fill="#000000" opacity="1.000000" stroke="none" 
	d="
M83.241829,219.313416 
	C88.432396,214.148560 94.301186,213.438095 100.484261,215.785187 
	C106.103210,217.918167 109.041237,222.328644 109.449783,228.370697 
	C109.884193,234.795258 107.305367,239.612396 101.971703,242.280228 
	C96.312553,245.110901 89.622414,244.287247 84.770210,240.162491 
	C80.232254,236.304855 78.429482,230.000275 80.441551,224.387207 
	C81.045906,222.701218 82.122887,221.184631 83.241829,219.313416 
M85.125702,221.648483 
	C83.187439,223.834991 82.733238,226.307449 83.651985,229.069962 
	C85.337532,234.138168 93.724258,239.678772 99.045769,239.221268 
	C103.364075,238.849991 106.812378,235.229492 106.515556,231.378464 
	C105.890717,223.271713 92.837563,216.840424 85.125702,221.648483 
z"/>
<path fill="#000000" opacity="1.000000" stroke="none" 
	d="
M303.295471,476.256836 
	C307.544983,467.488281 310.539673,458.510681 315.997894,449.441895 
	C322.716339,461.029449 325.678864,473.327148 332.887787,483.888214 
	C329.031036,484.789124 325.197357,484.174438 320.684265,484.201630 
	C323.910645,480.349640 323.042999,477.179749 320.438232,474.372650 
	C318.907776,472.723297 309.614532,472.790802 307.965454,474.213501 
	C305.634979,476.223938 305.162048,480.463013 307.085144,483.843353 
	C304.446075,484.704712 301.911041,484.323853 298.884003,484.016296 
	C300.423645,481.323059 301.777466,478.954865 303.295471,476.256836 
M310.465454,470.344238 
	C313.103027,470.344238 315.740601,470.344238 318.526703,470.344238 
	C317.021362,464.160187 316.695953,463.506378 313.641144,460.317841 
	C312.501312,463.614288 310.196106,466.334106 310.465454,470.344238 
z"/>
<path fill="#000000" opacity="1.000000" stroke="none" 
	d="
M216.583435,121.030571 
	C208.171722,118.024658 203.623093,112.023056 204.218735,105.143219 
	C204.980453,96.345070 211.494125,91.007561 220.650162,91.678818 
	C228.418716,92.248367 234.382034,99.396049 233.933838,107.600784 
	C233.462845,116.222862 226.733093,121.597511 216.583435,121.030571 
M226.810059,102.839508 
	C225.563446,100.469711 224.010361,98.329903 221.883194,96.680420 
	C219.217041,94.613029 216.327225,93.715752 213.127563,95.459435 
	C210.138596,97.088303 209.297241,99.844749 209.338531,103.007683 
	C209.388641,106.844498 211.317856,109.991089 213.336456,113.002327 
	C216.330002,117.467911 221.169907,119.098007 224.865921,117.179810 
	C228.466080,115.311348 229.730911,110.928986 228.116028,105.800224 
	C227.868759,105.014954 227.475952,104.275520 226.810059,102.839508 
z"/>
<path fill="#000000" opacity="1.000000" stroke="none" 
	d="
M493.011475,65.751404 
	C489.725067,68.533958 489.514343,72.426514 488.410400,75.836853 
	C486.731781,81.022476 485.377960,86.313232 483.886200,91.559341 
	C483.364197,91.739357 482.842194,91.919365 482.320160,92.099380 
	C478.400116,84.175934 474.480042,76.252487 469.845245,66.884338 
	C467.973999,74.298538 463.981537,79.799202 466.703949,86.916794 
	C463.967804,87.321442 461.477570,86.252831 458.440887,84.736580 
	C464.258270,81.927689 463.407196,76.170090 465.012970,71.602844 
	C466.601746,67.083893 469.351318,62.289581 463.870178,57.426403 
	C468.872894,57.470161 472.119324,58.475803 473.987396,62.581364 
	C476.781708,68.722519 479.825287,74.750259 483.310272,80.763100 
	C484.823547,75.013084 488.888153,69.871384 486.117950,63.257603 
	C488.713196,63.516247 491.074585,63.903233 493.011475,65.751404 
z"/>
<path fill="#000000" opacity="1.000000" stroke="none" 
	d="
M707.882324,288.801086 
	C711.274902,287.490723 714.698181,286.804382 715.411499,282.057922 
	C717.622742,285.153107 718.900574,287.647705 719.050293,291.498535 
	C715.514587,288.648315 712.665527,290.041321 709.544800,291.295776 
	C703.784729,293.611084 697.837708,295.461212 690.565735,297.993652 
	C693.993774,288.369263 699.642395,281.430267 702.728577,271.831757 
	C695.983765,274.797394 689.322021,274.978668 685.229736,281.059753 
	C683.593384,278.725830 682.962769,276.222534 682.240479,272.890717 
	C688.118835,276.230682 692.405579,272.429474 696.976990,270.840729 
	C701.434570,269.291504 707.312134,268.984528 707.208557,260.986542 
	C710.530640,265.107239 711.980042,268.238129 709.600281,272.424438 
	C706.358643,278.126984 703.428284,284.006470 700.287720,289.955353 
	C703.444763,291.235931 705.382141,289.501495 707.882324,288.801086 
z"/>
<path fill="#000000" opacity="1.000000" stroke="none" 
	d="
M591.273804,551.878113 
	C585.774780,545.734924 580.559692,539.821350 575.344604,533.907837 
	C574.942627,534.100525 574.540588,534.293152 574.138611,534.485840 
	C574.773804,540.545166 572.060120,546.967590 576.639221,553.026367 
	C573.996094,554.364685 571.161682,553.158630 568.068481,553.113342 
	C572.794678,547.302063 571.911804,529.499451 566.996582,525.572266 
	C572.301636,523.797668 573.883911,524.108948 577.287598,527.895630 
	C581.290344,532.348938 585.210999,536.875916 589.191711,541.349243 
	C589.368042,541.547363 589.786621,541.529907 590.788513,541.801819 
	C590.714417,536.178894 592.358826,530.692383 589.016357,525.219360 
	C591.525635,524.188965 594.057800,524.683899 597.499451,524.958496 
	C594.255371,527.496643 594.061462,530.445190 594.131592,533.577209 
	C594.250732,538.902161 594.191345,544.232605 594.113647,549.559448 
	C594.091431,551.084961 594.478821,553.346741 591.273804,551.878113 
z"/>
<path fill="#000000" opacity="1.000000" stroke="none" 
	d="
M478.895782,529.728943 
	C478.970642,527.683044 477.487518,526.744812 477.002563,525.164856 
	C479.654602,524.282959 482.211578,524.710388 484.612518,524.863464 
	C479.565216,533.758606 483.967194,543.372803 481.145020,553.876099 
	C474.710327,546.654053 468.830444,540.054688 462.950562,533.455383 
	C462.915161,540.091492 459.899902,546.767029 464.716309,552.961670 
	C461.976685,553.930298 459.129364,553.339722 456.022888,553.117920 
	C460.668640,547.505005 459.982147,529.908508 454.925995,525.215942 
	C459.231750,524.093750 462.560883,524.360046 465.499573,528.144531 
	C469.245911,532.968933 473.549011,537.360962 478.046143,542.428467 
	C479.717041,537.943848 478.830933,533.997925 478.895782,529.728943 
z"/>
<path fill="#000000" opacity="1.000000" stroke="none" 
	d="
M681.872070,221.380463 
	C679.960876,222.651810 677.943176,223.220184 676.558167,225.136353 
	C677.562927,228.604309 678.632568,232.061264 683.598389,232.314621 
	C682.051575,235.273270 679.395264,235.814316 676.655640,237.459839 
	C676.457275,233.074310 676.813293,228.275620 671.895691,227.738022 
	C669.268372,227.450836 665.898315,229.387222 664.944519,232.537094 
	C664.005371,235.638641 669.577026,240.922394 674.920654,242.513275 
	C671.375610,245.830795 668.589722,245.817200 666.326599,242.122757 
	C663.135681,236.913895 660.210205,231.542419 656.998901,225.939758 
	C663.670349,226.792633 678.997498,217.784546 681.851746,210.917252 
	C685.432922,217.203934 688.970886,222.745636 691.778564,228.635483 
	C693.114319,231.437469 690.216370,232.374786 687.112122,233.655090 
	C689.420227,228.985138 687.631775,225.788910 685.366028,222.671906 
	C684.532959,221.525787 683.809509,220.442001 681.872070,221.380463 
z"/>
<path fill="#000000" opacity="1.000000" stroke="none" 
	d="
M243.652710,529.745239 
	C248.734222,524.683044 254.387405,523.109009 260.705627,525.882629 
	C266.427795,528.394653 269.318146,533.181885 269.194489,539.353516 
	C269.070404,545.546936 265.855621,550.000977 260.099884,552.430176 
	C254.470337,554.806091 247.695709,553.080444 243.847778,548.405090 
	C239.318832,542.902283 239.181030,536.938843 243.652710,529.745239 
M249.781235,548.790710 
	C255.598083,552.332520 260.138397,550.813599 262.183441,544.526733 
	C263.342987,540.962097 263.327576,537.222900 262.347900,533.686584 
	C261.369415,530.154663 259.191101,527.496582 255.029785,527.256592 
	C250.752686,527.009888 248.602402,529.581482 247.382996,533.102661 
	C245.548172,538.401123 245.732376,543.562988 249.781235,548.790710 
z"/>
<path fill="#000000" opacity="1.000000" stroke="none" 
	d="
M165.071518,137.711517 
	C164.740280,141.478897 166.503555,142.968124 169.555878,143.535080 
	C174.378906,144.430939 179.046738,146.208496 185.036102,145.583282 
	C182.108246,149.116241 179.480286,151.453506 176.119049,153.618729 
	C174.832031,148.915497 170.869476,149.184525 167.445129,148.648392 
	C166.097458,148.437378 165.281921,149.722122 165.427185,150.968399 
	C165.796127,154.133652 163.534363,158.086166 168.340302,160.176422 
	C166.613022,162.337128 165.044769,164.336517 161.226013,165.832138 
	C163.033768,160.772171 162.506332,156.412628 162.653305,152.068909 
	C162.766159,148.733017 161.635025,146.880447 158.088074,146.212982 
	C153.610184,145.370331 149.216858,144.089218 143.766678,144.371414 
	C146.594391,140.860931 149.470352,138.743378 152.749542,136.176178 
	C154.097687,140.723495 157.540756,141.029007 161.651459,140.951721 
	C161.293655,137.434311 164.278122,133.415802 158.797455,131.154892 
	C160.248611,128.881256 162.187973,127.354362 165.037689,126.073975 
	C165.037689,130.105988 165.037689,133.686951 165.071518,137.711517 
z"/>
<path fill="#000000" opacity="1.000000" stroke="none" 
	d="
M296.282135,455.075073 
	C296.193665,456.911987 296.733124,458.437439 295.513733,460.197144 
	C293.713135,458.220215 292.975891,455.472565 290.554749,454.200653 
	C286.485809,452.063080 282.368744,451.262665 278.226898,453.751984 
	C271.992279,457.499115 269.868866,469.082062 274.075592,475.794495 
	C277.856293,481.827148 285.374969,483.003143 292.503754,478.732513 
	C293.589813,478.081909 294.425751,476.830902 295.964417,477.059296 
	C294.010590,482.795868 286.270325,485.830872 278.547852,483.912354 
	C269.789307,481.736389 263.635071,472.978455 265.236969,464.969910 
	C267.348145,454.415100 276.418518,448.119415 286.951813,449.861176 
	C289.353363,450.258270 291.504730,451.434540 294.221161,450.965057 
	C296.575958,450.558044 295.961243,453.189545 296.282135,455.075073 
z"/>
<path fill="#000000" opacity="1.000000" stroke="none" 
	d="
M124.920769,163.422897 
	C126.177681,161.948532 127.282013,160.734680 128.580536,159.307373 
	C132.176392,169.232880 142.734573,172.288620 148.962753,181.484467 
	C139.104889,181.484467 130.317642,181.484467 121.530403,181.484467 
	C121.429825,182.013672 121.329247,182.542892 121.228668,183.072098 
	C126.394875,186.352036 129.112671,193.077271 136.801758,193.400070 
	C135.627228,195.871490 133.719955,197.791260 131.069916,200.245346 
	C131.203812,193.803040 126.325165,191.557968 122.720451,188.551224 
	C119.114281,185.543289 116.297531,180.342148 110.093353,182.515060 
	C111.128929,178.147003 112.695549,176.746872 117.032356,176.694992 
	C124.170593,176.609573 131.310593,176.671829 140.088120,176.671829 
	C134.908768,172.016495 131.382385,167.767181 126.197235,165.485962 
	C125.229912,165.060394 124.195328,165.145218 124.920769,163.422897 
z"/>
<path fill="#000000" opacity="1.000000" stroke="none" 
	d="
M678.588623,254.496674 
	C676.882874,261.540619 681.088867,264.747620 687.505981,267.270538 
	C682.987244,268.788147 679.960999,269.346802 678.033997,265.047974 
	C675.617859,259.658234 673.008667,254.355042 670.248718,248.519363 
	C676.658997,250.454025 692.983398,242.475891 696.106201,235.687927 
	C699.354736,242.389267 702.714233,248.282669 705.040588,254.559021 
	C706.192383,257.666534 702.485229,257.945770 699.133789,259.531097 
	C702.755005,253.956207 700.971436,249.599579 697.705322,246.708221 
	C695.148865,244.445023 692.434875,247.924835 689.598389,249.215027 
	C690.340149,253.094879 691.626770,256.280914 696.060242,257.503815 
	C693.931580,260.123993 691.475769,261.069916 688.614258,261.667328 
	C688.262512,259.529968 690.009155,258.181915 689.244324,256.137573 
	C687.242065,250.785355 685.873108,250.443466 678.588623,254.496674 
z"/>
<path fill="#000000" opacity="1.000000" stroke="none" 
	d="
M97.127953,198.132828 
	C99.066010,195.396698 100.859123,192.989746 102.501053,190.483765 
	C105.049065,186.594879 107.309608,187.614746 110.366722,191.074188 
	C103.737114,190.922821 102.454323,195.845322 99.767189,199.783371 
	C102.401436,201.662949 104.527214,205.323807 107.718697,203.789108 
	C110.545097,202.429962 112.354500,199.060806 110.831650,194.809265 
	C114.281166,195.240982 115.973358,197.431976 118.039024,198.999756 
	C117.133797,200.923965 115.371620,199.925110 114.402420,200.830566 
	C112.587952,202.525665 109.879173,204.475601 110.816231,206.846664 
	C111.947777,209.709854 115.016083,211.630981 118.188026,212.220520 
	C120.264862,212.606537 124.643227,205.209442 124.360466,202.208191 
	C124.255508,201.094223 123.320923,200.076996 124.459190,197.924225 
	C126.511017,200.271194 129.403519,202.161011 127.571312,205.258377 
	C124.230721,210.905716 120.118965,216.096878 116.493568,221.244553 
	C110.268181,212.755219 102.445511,207.769760 93.286652,203.871262 
	C93.641113,202.168823 95.503517,200.425323 97.127953,198.132828 
z"/>
<path fill="#000000" opacity="1.000000" stroke="none" 
	d="
M72.984177,289.858093 
	C77.347504,291.257843 77.347504,291.257843 81.388458,289.672638 
	C81.574348,293.290344 79.404846,295.946808 78.546753,299.122986 
	C69.850456,294.218811 61.460857,289.821320 50.993858,290.033539 
	C52.181141,285.053528 53.910904,279.571381 57.374950,274.945038 
	C59.894371,271.580292 63.662457,270.396912 67.545776,272.776917 
	C71.718307,275.334137 72.303619,279.357086 70.852859,283.707123 
	C70.001106,286.261078 68.316193,288.831085 72.984177,289.858093 
M57.203018,281.201752 
	C56.319962,285.411774 60.079300,284.836731 62.149864,285.866333 
	C63.932438,286.752747 66.040054,287.522522 67.186920,284.913940 
	C68.257019,282.480042 67.569382,280.356415 65.403717,278.846649 
	C62.172764,276.594299 59.536617,277.411743 57.203018,281.201752 
z"/>
<path fill="#000000" opacity="1.000000" stroke="none" 
	d="
M516.286743,527.391174 
	C514.906738,525.924255 514.211426,524.743164 516.678894,524.707703 
	C522.330200,524.626465 527.992188,524.548218 533.633484,524.815002 
	C536.355591,524.943604 536.434082,525.537170 535.615967,530.509644 
	C533.156189,527.456543 530.049683,526.965149 526.636780,527.264771 
	C524.500916,527.452393 523.005737,528.315918 523.034424,530.526917 
	C523.060120,532.513245 521.474548,535.355652 524.185669,536.295349 
	C527.446411,537.425659 530.773315,536.809692 533.112244,533.048645 
	C535.095459,536.380554 534.140320,539.247131 534.064026,542.039001 
	C532.090149,542.293762 531.995544,540.942200 531.274414,540.366882 
	C529.040100,538.584290 526.078735,538.518921 524.314209,539.979187 
	C521.676880,542.161743 522.721130,545.896545 522.921875,548.902710 
	C523.082458,551.306213 525.696655,550.542419 527.414673,550.849915 
	C531.662170,551.610291 534.561646,549.173340 537.822449,546.011169 
	C537.971375,550.673279 537.346863,553.548462 532.409973,553.401062 
	C526.785095,553.233032 521.151367,553.362122 515.422668,553.362122 
	C518.135681,544.633484 517.004150,536.164062 516.286743,527.391174 
z"/>
<path fill="#000000" opacity="1.000000" stroke="none" 
	d="
M448.847412,66.679504 
	C450.776001,66.389374 452.333252,66.077019 454.003387,65.742012 
	C454.574463,68.150505 454.436737,70.357788 453.109741,72.368942 
	C451.804871,72.870338 451.747131,71.673309 451.239868,71.159492 
	C449.055664,68.947144 445.939972,67.894150 443.608704,69.298180 
	C440.951477,70.898499 440.994446,74.606911 441.337646,77.530869 
	C441.696320,80.586456 444.779877,80.028656 446.900635,80.609245 
	C450.458435,81.583237 453.170013,79.500259 456.094696,77.577362 
	C455.451813,83.646667 454.367493,84.501244 449.136292,83.542160 
	C443.464996,82.502403 437.789093,81.487663 432.287170,80.493095 
	C437.940521,71.724251 438.013489,62.311897 438.446136,52.482502 
	C444.035492,52.971283 449.996307,54.222836 455.921692,55.638905 
	C459.458588,56.484161 458.048553,59.003654 458.056702,61.939167 
	C455.130310,59.848854 453.472961,57.517059 450.279480,56.943836 
	C446.564941,56.277084 444.809937,56.686497 443.865356,60.649792 
	C442.826263,65.009644 444.477264,66.543671 448.847412,66.679504 
z"/>
<path fill="#000000" opacity="1.000000" stroke="none" 
	d="
M541.342163,525.494080 
	C547.489136,524.002502 553.629700,524.707275 559.738098,524.761719 
	C563.008057,524.790771 563.362061,525.906433 562.248108,530.600708 
	C560.081177,529.525208 558.859375,526.682129 555.950684,527.253357 
	C553.687866,527.697693 550.499329,526.089478 549.588196,529.465820 
	C549.020813,531.568237 548.163086,534.690979 550.380493,535.942810 
	C552.944519,537.390320 556.176636,537.435486 558.516296,534.633667 
	C558.815491,534.275391 559.263306,534.041138 559.801514,533.626831 
	C561.808716,536.473389 560.983398,539.313660 560.483215,542.049683 
	C559.127808,542.716736 558.871460,541.757019 558.414429,541.139038 
	C556.290161,538.266296 553.076965,538.514343 550.822021,539.901489 
	C547.830688,541.741699 549.369019,545.390930 549.507446,548.209900 
	C549.660583,551.326782 552.469421,550.555542 554.529114,550.811523 
	C558.584778,551.315552 561.442749,549.270752 563.991333,546.155212 
	C564.776123,551.679810 563.641357,553.282776 558.966553,553.357727 
	C553.174805,553.450562 547.380371,553.379944 541.957764,553.379944 
	C543.927612,543.900513 545.905518,534.828003 541.342163,525.494080 
z"/>
<path fill="#000000" opacity="1.000000" stroke="none" 
	d="
M294.209290,546.753540 
	C295.665375,550.160767 294.736877,553.085693 291.910248,553.204712 
	C285.334839,553.481750 278.739868,553.293091 271.720215,553.293091 
	C275.663849,548.249451 275.770813,529.995361 271.800720,524.764465 
	C278.680267,524.764465 285.070404,524.526123 291.429413,524.867310 
	C294.503510,525.032288 293.905518,527.722961 293.642090,530.489929 
	C289.331207,527.609497 284.918579,524.933289 280.772461,529.029968 
	C279.302887,530.481995 279.056305,534.530884 281.240753,535.850098 
	C284.403381,537.760010 288.017822,537.205017 290.483429,533.184265 
	C292.466919,536.494690 291.885559,539.557129 291.281464,543.242920 
	C288.704529,541.586365 287.456268,538.784912 284.070374,539.150452 
	C280.153961,539.573242 280.032410,541.938660 280.163788,544.737671 
	C280.287689,547.378479 279.177429,550.773254 283.826294,550.821167 
	C287.755798,550.861633 291.575775,550.844971 294.209290,546.753540 
z"/>
<path fill="#000000" opacity="1.000000" stroke="none" 
	d="
M186.995789,541.909241 
	C186.990311,538.104309 187.009430,534.782837 186.980637,531.461853 
	C186.960419,529.131409 186.977127,526.758362 184.126846,525.302246 
	C189.609161,524.576477 194.832581,524.082275 199.964508,525.072876 
	C204.778091,526.002075 207.435623,529.928223 206.716385,534.039062 
	C205.908325,538.657593 200.569489,542.035583 194.763550,541.544006 
	C194.145493,541.491699 193.564240,540.957275 192.614487,541.743774 
	C192.794662,545.393738 190.849411,549.754272 196.407532,552.696960 
	C192.081909,553.790283 188.594482,553.487976 184.652832,552.941345 
	C187.662689,549.675903 186.933380,545.961609 186.995789,541.909241 
M192.484177,530.185425 
	C192.466476,531.837769 192.395981,533.491699 192.444824,535.142029 
	C192.502350,537.086548 193.612671,538.390442 195.501450,538.348450 
	C197.841187,538.296509 199.563675,536.898499 200.290207,534.648682 
	C201.156845,531.964966 200.227783,529.629333 197.986130,528.134705 
	C195.982635,526.798767 193.891617,526.811218 192.484177,530.185425 
z"/>
<path fill="#000000" opacity="1.000000" stroke="none" 
	d="
M191.239365,129.703888 
	C189.050797,126.535378 187.078415,123.651642 185.079102,120.786682 
	C183.497513,118.520264 182.146423,115.937782 177.470169,116.479012 
	C182.004211,112.522636 185.865540,110.003601 189.936050,107.891800 
	C194.738251,105.400406 199.266830,106.361176 201.498749,109.939407 
	C203.965973,113.894905 202.542328,118.781540 197.968430,121.970291 
	C197.019577,122.631798 196.013931,123.211838 194.697968,124.041603 
	C196.626617,127.872375 197.666962,132.366394 203.760666,132.491776 
	C201.039169,135.498596 198.227173,137.326309 194.358246,138.849884 
	C195.180145,134.986404 193.188126,132.542480 191.239365,129.703888 
M197.106003,118.469521 
	C197.229568,117.332787 197.692886,116.102219 197.409912,115.077782 
	C196.699875,112.507217 195.086349,110.546524 192.174805,110.545959 
	C190.340164,110.545601 187.853790,111.095436 187.748062,113.010551 
	C187.564880,116.328827 189.992249,118.866341 192.344406,120.879890 
	C194.261765,122.521233 195.575027,120.451538 197.106003,118.469521 
z"/>
<path fill="#000000" opacity="1.000000" stroke="none" 
	d="
M620.203003,174.351624 
	C620.232300,176.264603 619.901001,177.735184 618.043823,176.293198 
	C615.987183,174.696259 614.236633,172.705017 611.848694,170.398651 
	C615.744934,169.354752 617.569641,166.781158 617.045349,163.764374 
	C616.453918,160.361206 613.341248,157.971924 610.389038,156.880966 
	C607.211365,155.706665 604.505676,157.873398 603.398438,161.212845 
	C600.991028,160.215256 599.579407,158.975967 598.856873,156.885544 
	C609.194031,154.252167 618.379333,148.792191 629.431213,145.401077 
	C627.857361,156.004654 622.458313,164.534348 620.203003,174.351624 
M615.944092,157.489044 
	C619.481812,159.693832 620.125793,159.069107 621.328796,151.663788 
	C618.930359,153.456787 613.998352,151.286652 615.944092,157.489044 
z"/>
<path fill="#000000" opacity="1.000000" stroke="none" 
	d="
M444.151550,553.244263 
	C442.383240,552.434509 443.548248,551.499939 443.570984,550.635620 
	C443.649414,547.657715 443.285980,544.541443 439.590881,544.369263 
	C436.101013,544.206787 431.833954,542.522034 429.932648,547.853821 
	C429.175690,549.976624 430.467072,551.180786 431.025574,552.831970 
	C428.562500,553.831909 426.353607,553.557861 423.768280,552.812256 
	C429.679199,543.699890 432.253540,533.146301 438.191681,523.364014 
	C444.411041,533.132019 446.190460,544.130127 452.903015,552.926941 
	C450.059052,553.843567 447.257660,553.233337 444.151550,553.244263 
M434.000641,538.792969 
	C434.658691,543.184937 437.420837,541.395264 440.056488,541.051575 
	C439.640289,538.113464 438.597412,535.876282 436.980286,533.791931 
	C435.240448,535.048157 434.888275,536.716919 434.000641,538.792969 
z"/>
<path fill="#000000" opacity="1.000000" stroke="none" 
	d="
M404.249695,453.860077 
	C403.968445,455.584259 403.368225,455.913544 402.315399,454.831055 
	C400.860474,453.335144 399.086700,452.575531 397.012115,452.395111 
	C394.043274,452.136902 392.235535,452.955292 392.293671,456.423920 
	C392.413330,463.564972 392.373566,470.709778 392.312195,477.852264 
	C392.289703,480.473358 393.499298,482.203979 396.993042,483.541473 
	C391.775543,484.858795 387.775696,484.190308 382.678436,484.153931 
	C387.552338,480.581238 386.639954,476.099823 386.648346,471.834106 
	C386.656860,467.515228 386.765076,463.193512 386.638062,458.878662 
	C386.574463,456.717712 387.661865,453.904266 384.609283,452.851044 
	C381.552673,451.796417 378.693237,452.162628 376.638794,455.078644 
	C376.288513,455.575806 376.102386,456.326843 375.235840,456.190552 
	C374.129822,450.582062 374.620239,449.775879 379.600494,449.721863 
	C386.410522,449.647980 393.222382,449.746704 400.032654,449.683319 
	C402.724884,449.658234 404.708557,450.183685 404.249695,453.860077 
z"/>
<path fill="#000000" opacity="1.000000" stroke="none" 
	d="
M361.955170,67.538284 
	C361.201721,61.287487 363.100616,55.180378 359.338104,49.098797 
	C366.560211,48.751331 373.275482,48.088673 379.971130,48.248348 
	C383.355682,48.329060 382.239227,51.526096 382.347351,54.585670 
	C379.466034,52.027306 376.899231,50.346989 373.581482,51.014950 
	C371.312714,51.471714 368.088196,50.302753 367.519989,53.848679 
	C367.173309,56.012161 366.214905,59.084751 368.623352,60.247108 
	C371.232483,61.506344 374.452423,61.645550 376.825836,58.922550 
	C377.110992,58.595394 377.589264,58.436550 378.204376,58.061779 
	C379.774078,60.645596 379.228363,63.195316 379.014374,66.409248 
	C375.422546,63.535442 371.820496,61.759197 368.100891,64.507431 
	C366.290253,65.845215 368.501923,74.294968 371.159851,76.831314 
	C367.500397,77.864220 363.998230,78.230240 359.725525,77.821388 
	C362.337067,74.658119 363.072662,71.469307 361.955170,67.538284 
z"/>
<path fill="#000000" opacity="1.000000" stroke="none" 
	d="
M396.712738,353.844849 
	C396.671295,352.878174 396.671295,352.234924 396.671295,351.552826 
	C397.036621,351.552826 397.545319,351.473450 397.577637,351.564056 
	C402.924255,366.548615 409.579071,381.165344 410.338776,397.438538 
	C410.466187,400.168091 409.829010,402.716400 409.265381,405.304749 
	C408.970093,406.660675 408.286896,407.862854 406.742920,408.049377 
	C405.162109,408.240387 404.310272,407.113220 403.708496,405.896027 
	C401.021454,400.461029 400.095795,394.655243 399.635345,388.658966 
	C402.056488,388.411926 401.896057,391.034515 404.578949,390.992279 
	C404.743835,378.097931 399.611694,366.344086 396.712738,353.844849 
z"/>
<path fill="#000000" opacity="1.000000" stroke="none" 
	d="
M450.074585,311.509705 
	C442.527100,313.015167 438.493439,311.702454 435.342468,306.766083 
	C438.374023,305.982574 441.654480,308.111023 444.757416,305.691589 
	C442.295807,303.387848 439.139252,302.159332 437.097229,299.587555 
	C435.051666,297.011292 432.934601,294.516663 432.079895,289.878143 
	C437.216888,293.732544 440.970886,297.681976 446.051086,299.569611 
	C451.263275,301.506317 456.695404,300.977753 463.094299,300.313049 
	C459.959930,306.499512 455.906189,309.726807 450.074585,311.509705 
z"/>
<path fill="#000000" opacity="1.000000" stroke="none" 
	d="
M233.167709,94.469002 
	C232.296997,80.706879 241.568573,77.125122 252.691849,74.945389 
	C254.233276,76.224632 255.128342,78.567375 256.441711,81.955109 
	C251.742203,80.167671 248.027191,77.843201 243.873245,80.046982 
	C241.919098,81.083710 240.291412,82.386490 239.368591,84.503799 
	C237.156815,89.578407 239.678970,97.976273 244.532364,101.467224 
	C249.620316,105.126938 252.388977,104.148933 261.721588,95.395264 
	C261.846191,101.229614 257.355835,105.483246 249.780685,106.706696 
	C242.254456,107.922226 236.006729,103.448730 233.167709,94.469002 
z"/>
<path fill="#000000" opacity="1.000000" stroke="none" 
	d="
M608.474976,132.852539 
	C604.371460,126.973869 601.162720,125.456848 596.831360,127.053314 
	C591.439941,129.040482 586.019897,136.458954 586.487976,141.210251 
	C587.024902,146.660736 591.115601,149.813324 599.453430,151.202515 
	C597.134094,153.233292 597.134094,153.233276 594.696472,152.817978 
	C587.934937,151.666031 582.598022,146.088943 581.817993,139.359924 
	C581.098572,133.153946 584.635742,127.156288 590.584473,124.495255 
	C596.959167,121.643661 604.513245,123.337456 609.217590,128.633224 
	C610.729248,130.334869 611.363220,132.922531 614.461853,133.006653 
	C613.289490,136.340988 611.970337,138.821091 608.948669,141.045700 
	C608.815002,138.008698 608.709351,135.608185 608.474976,132.852539 
z"/>
<path fill="#000000" opacity="1.000000" stroke="none" 
	d="
M665.892944,188.414627 
	C669.796753,193.789856 673.506470,198.891968 677.106995,204.069962 
	C679.907166,208.096863 679.516357,208.912674 674.271240,210.682343 
	C673.251038,209.375015 674.537415,208.155884 674.426270,206.884903 
	C674.111084,203.280106 671.266724,201.640121 668.226196,203.620392 
	C663.639893,206.607391 659.293457,209.960724 654.744812,213.008667 
	C652.851257,214.277512 652.591064,216.097443 652.564148,218.614517 
	C649.320435,216.365601 647.933960,213.510681 646.445435,210.589096 
	C653.891418,207.843353 659.401611,202.491989 665.719421,198.407700 
	C667.751343,197.094131 667.483215,195.658112 666.158142,193.838440 
	C664.693298,191.826782 662.305664,191.594986 660.028442,190.456009 
	C661.710693,188.421387 663.101440,186.906616 665.892944,188.414627 
z"/>
<path fill="#000000" opacity="1.000000" stroke="none" 
	d="
M325.068176,306.610352 
	C327.184021,306.873901 328.804382,305.022919 330.953552,306.375549 
	C327.708984,311.762573 322.544495,311.674072 317.429108,311.283325 
	C311.486298,310.829407 305.593567,305.956268 303.704437,299.714661 
	C315.555481,303.115295 324.592590,298.167755 332.742401,289.860016 
	C332.908051,295.413666 329.120941,300.062317 321.195251,304.785217 
	C321.764587,306.579803 323.374603,306.366974 325.068176,306.610352 
z"/>
<path fill="#000000" opacity="1.000000" stroke="none" 
	d="
M368.061768,358.272644 
	C364.779449,367.600586 362.797943,376.865814 361.431915,386.272644 
	C361.269257,387.392639 361.409790,388.556641 361.409790,389.520355 
	C363.303375,391.008606 364.192047,388.435944 365.638763,388.881897 
	C365.828491,389.217682 366.141663,389.508636 366.117340,389.767883 
	C365.665741,394.582886 364.526398,399.257538 363.034821,403.841156 
	C362.460754,405.605255 361.563263,407.573273 359.445618,407.513977 
	C357.142883,407.449524 356.849579,405.240356 356.533691,403.445251 
	C354.776825,393.461761 357.134460,383.901337 359.945526,374.490479 
	C361.827942,368.188599 364.428253,362.101105 366.675415,356.004181 
	C368.409698,356.194489 368.041504,357.174591 368.061768,358.272644 
z"/>
<path fill="#000000" opacity="1.000000" stroke="none" 
	d="
M563.380249,105.862289 
	C563.518860,108.209312 563.317322,110.250351 564.777954,111.849266 
	C570.401001,110.787971 573.116516,109.183746 575.930359,105.206764 
	C578.207703,105.717903 580.011230,106.966492 581.646973,108.865021 
	C568.495178,112.293343 557.079956,118.067230 559.897888,128.053299 
	C555.834656,126.992928 552.897522,124.551598 549.530579,122.135872 
	C554.939758,120.919815 558.827515,115.672966 558.493042,110.532333 
	C558.149109,105.247932 557.774048,99.965561 557.386353,94.298203 
	C561.203552,94.749695 563.538208,97.255737 566.897522,99.476646 
	C563.384460,100.547546 563.145508,102.902733 563.380249,105.862289 
z"/>
<path fill="#000000" opacity="1.000000" stroke="none" 
	d="
M408.241272,549.944702 
	C413.460632,550.982300 413.460632,550.982300 422.033539,546.421631 
	C422.271301,548.969727 420.563141,550.040649 418.936005,551.089172 
	C413.208282,554.780212 404.873810,553.958679 399.989136,549.264893 
	C395.396393,544.851624 394.366089,537.857971 397.488434,532.289612 
	C400.752655,526.468201 408.578217,523.260498 415.154846,525.135132 
	C417.049622,525.675171 418.834290,526.979919 420.746857,525.068359 
	C422.403900,527.877075 422.217468,530.424316 421.608063,533.523315 
	C418.497131,529.244995 414.972351,526.328125 409.513763,527.357971 
	C407.028961,527.826721 405.252930,529.196289 403.871979,531.136292 
	C399.812256,536.839661 401.796722,545.937073 408.241272,549.944702 
z"/>
<path fill="#000000" opacity="1.000000" stroke="none" 
	d="
M428.374908,307.120361 
	C434.759033,315.855103 443.029358,321.334015 453.309296,323.960846 
	C446.733856,332.801392 433.251007,331.006561 428.604675,321.053619 
	C429.740173,319.554871 431.484558,321.091522 433.096680,319.990784 
	C432.700012,317.724365 430.217957,316.650879 429.429901,314.617493 
	C428.484833,312.178955 425.443085,310.054474 428.374908,307.120361 
z"/>
<path fill="#000000" opacity="1.000000" stroke="none" 
	d="
M337.459595,77.131767 
	C338.489319,78.149673 339.353241,78.843742 340.363220,79.655136 
	C336.962524,81.425201 333.504456,81.368088 330.033661,81.556374 
	C332.760712,73.356667 329.531067,65.688995 328.236298,57.941853 
	C327.810974,55.396996 324.993500,56.018620 323.216583,56.910686 
	C321.803345,57.620155 320.717529,58.981880 319.481750,60.058056 
	C317.100311,56.007149 317.657196,54.591930 322.093506,53.864071 
	C327.646790,52.952950 333.222504,52.178013 338.789459,51.350632 
	C343.289673,50.681797 343.832947,51.262493 343.528015,56.606892 
	C342.878052,56.331356 342.207397,56.194248 341.725220,55.816517 
	C339.875214,54.367275 337.762787,53.725872 335.694611,54.813847 
	C333.184204,56.134472 334.249481,58.696606 334.524567,60.668385 
	C335.278412,66.071838 336.348755,71.431145 337.459595,77.131767 
z"/>
<path fill="#000000" opacity="1.000000" stroke="none" 
	d="
M334.061707,325.218689 
	C326.386353,330.794525 319.126678,330.389557 312.815613,323.738739 
	C323.158295,320.763275 331.399475,314.959930 338.516785,305.558258 
	C338.762054,312.036316 335.947052,315.552734 332.787781,318.521729 
	C333.940430,320.719452 335.997040,319.282776 337.055969,320.617676 
	C337.358032,322.777496 335.606201,323.740356 334.061707,325.218689 
z"/>
<path fill="#000000" opacity="1.000000" stroke="none" 
	d="
M527.877747,96.934250 
	C529.950928,91.685165 534.413879,87.623779 532.752686,80.780602 
	C536.306274,82.568047 539.291260,84.069496 543.028320,85.949226 
	C536.867676,88.072433 536.328186,93.397545 533.887085,97.336601 
	C533.188293,98.464157 532.478760,99.659599 532.143372,100.922005 
	C531.479065,103.421898 527.622009,105.854118 530.618408,108.379784 
	C533.708923,110.984856 537.584229,113.258171 542.053101,110.597900 
	C542.562805,110.294479 543.219055,110.237137 543.997803,110.010208 
	C541.939575,115.522949 539.818970,116.559052 535.320801,114.352753 
	C530.149902,111.816498 525.023743,109.189262 518.463867,105.890327 
	C525.507568,105.557129 525.562683,100.508804 527.877747,96.934250 
z"/>
<path fill="#000000" opacity="1.000000" stroke="none" 
	d="
M496.841675,537.076782 
	C496.841553,536.262756 496.841248,535.930786 496.841248,535.598755 
	C496.841766,526.170715 495.579193,525.380737 487.359131,529.962463 
	C486.220245,526.487671 486.930389,524.570801 490.941833,524.621277 
	C496.584869,524.692322 502.231262,524.742188 507.872528,524.624390 
	C511.672272,524.545105 513.079590,526.044678 511.980377,529.644592 
	C511.220795,530.325317 510.642029,529.973022 510.201965,529.476440 
	C508.476410,527.529297 506.291138,526.724182 503.938293,527.736328 
	C501.592316,528.745483 502.399628,531.164185 502.359009,533.058899 
	C502.270111,537.206848 502.392487,541.359375 502.301971,545.507263 
	C502.241882,548.259644 502.460846,550.816528 505.782227,552.600952 
	C501.577087,554.125488 498.043671,553.173035 493.914185,553.184509 
	C498.749634,548.323914 496.142212,542.693665 496.841675,537.076782 
z"/>
<path fill="#000000" opacity="1.000000" stroke="none" 
	d="
M421.030487,51.681297 
	C424.332977,49.116180 427.550354,51.341648 430.540710,51.173004 
	C426.656006,60.737270 425.312836,69.903893 427.349548,79.779259 
	C424.643677,79.596466 421.255554,79.669418 417.985352,78.607178 
	C422.264008,70.778282 421.327789,62.218613 422.414459,54.037235 
	C422.497101,53.415051 421.599548,52.662685 421.030487,51.681297 
z"/>
<path fill="#000000" opacity="1.000000" stroke="none" 
	d="
M144.500031,155.551758 
	C147.558105,158.610184 150.367905,161.427521 153.189301,164.233215 
	C155.143631,166.176682 156.885880,168.589767 161.057175,166.634964 
	C158.682785,170.928024 155.631027,172.872940 153.061127,175.682526 
	C151.165817,168.347336 138.355652,155.757767 132.600464,155.796967 
	C134.570251,152.129471 137.750717,150.167694 140.853592,147.569641 
	C139.978271,151.248596 142.225098,153.223755 144.500031,155.551758 
z"/>
<path fill="#000000" opacity="1.000000" stroke="none" 
	d="
M425.232727,324.915344 
	C429.274292,330.948792 434.259552,335.275574 441.995728,336.737823 
	C434.197876,342.077301 424.945923,341.271698 420.695068,335.705688 
	C421.907043,334.006378 423.936066,336.218567 425.430420,334.526978 
	C424.307312,331.286652 421.829987,328.338715 421.768707,324.590302 
	C421.755859,323.802429 421.948975,323.011139 422.044189,322.245819 
	C424.045288,322.071106 424.277008,323.669708 425.232727,324.915344 
z"/>
<path fill="#000000" opacity="1.000000" stroke="none" 
	d="
M327.849945,338.680267 
	C326.590881,338.146271 325.572174,337.877594 325.610626,336.224030 
	C328.965393,334.835938 332.736755,333.719635 335.382355,330.846344 
	C337.915375,328.095337 340.216644,325.130920 343.086426,321.702820 
	C344.938110,327.065491 342.000427,330.526276 340.306274,334.162903 
	C341.941345,335.494446 343.766693,333.820312 345.241302,334.890717 
	C342.779816,339.435272 337.026550,340.765411 327.849945,338.680267 
z"/>
<path fill="#000000" opacity="1.000000" stroke="none" 
	d="
M384.276855,246.692627 
	C383.728943,245.191864 382.672363,244.095978 384.114960,241.881073 
	C388.212067,247.162216 392.920532,251.467529 399.492188,254.630798 
	C393.424469,256.463531 388.707794,253.738007 384.276855,246.692627 
z"/>
<path fill="#000000" opacity="1.000000" stroke="none" 
	d="
M162.092911,558.882935 
	C158.659134,558.610352 155.472076,559.305359 151.602631,556.371582 
	C159.673462,555.294006 166.407242,555.296692 173.183487,556.706787 
	C169.962067,559.416443 166.175049,558.714600 162.092911,558.882935 
z"/>
<path fill="#000000" opacity="1.000000" stroke="none" 
	d="
M609.894043,558.935303 
	C605.554077,558.752869 601.562378,559.274475 597.934692,556.888794 
	C604.640869,554.994019 611.386719,555.699036 619.450745,555.864807 
	C616.142273,559.497742 613.105530,558.733887 609.894043,558.935303 
z"/>
</svg>